<?xml version="1.0" standalone="no"?><!DOCTYPE svg PUBLIC "-//W3C//DTD SVG 1.1//EN" "http://www.w3.org/Graphics/SVG/1.1/DTD/svg11.dtd"><svg t="1768375116091" class="icon" viewBox="0 0 1024 1024" version="1.1" xmlns="http://www.w3.org/2000/svg" p-id="1768" id="mx_n_1768375116092" xmlns:xlink="http://www.w3.org/1999/xlink" width="200" height="200"><path d="M896 405.333333v128c0 106.026667-171.946667 192-384 192s-384-85.973333-384-192v-128c0 106.026667 171.946667 192 384 192s384-85.973333 384-192z m-768 213.333334c0 106.026667 171.946667 192 384 192s384-85.973333 384-192v128c0 106.026667-171.946667 192-384 192s-384-85.973333-384-192v-128z m384-106.666667c-212.053333 0-384-85.973333-384-192S299.946667 128 512 128s384 85.973333 384 192-171.946667 192-384 192z" fill="#1F6F73" p-id="1769"></path></svg>