<?xml version="1.0" standalone="no"?><!DOCTYPE svg PUBLIC "-//W3C//DTD SVG 1.1//EN" "http://www.w3.org/Graphics/SVG/1.1/DTD/svg11.dtd"><svg t="1768221745514" class="icon" viewBox="0 0 1024 1024" version="1.1" xmlns="http://www.w3.org/2000/svg" p-id="27172" xmlns:xlink="http://www.w3.org/1999/xlink" width="200" height="200"><path d="M754.368 669.44A270.528 270.528 0 0 1 960 931.84v31.552H64v-31.552a270.208 270.208 0 0 1 192.512-258.624c80-19.328 140.8-85.12 149.12-154.112C363.52 490.24 331.136 446.72 320 398.144L281.6 231.04C252.416 103.296 334.976 0 465.92 0h88.768c131.2 0 215.424 103.744 188.672 231.744l-34.688 165.696c-10.688 51.008-44.8 96.448-89.152 125.44 6.4 65.664 60.672 124.992 134.848 146.56z" fill="#2c2c2c" p-id="27173"></path></svg>