<?xml version="1.0" standalone="no"?><!DOCTYPE svg PUBLIC "-//W3C//DTD SVG 1.1//EN" "http://www.w3.org/Graphics/SVG/1.1/DTD/svg11.dtd"><svg t="1768216170831" class="icon" viewBox="0 0 1024 1024" version="1.1" xmlns="http://www.w3.org/2000/svg" p-id="14646" xmlns:xlink="http://www.w3.org/1999/xlink" width="200" height="200"><path d="M512 5.6C229.6 5.6 0 232 0 512s229.6 506.4 512 506.4S1024 792 1024 512 794.4 5.6 512 5.6zM183.2 807.2s32-13.6 37.6-16c7.2-1.6 15.2-4 36-6.4 31.2-4 157.6-65.6 157.6-65.6l0.8-80.8c-38.4-32-41.6-100-41.6-100s-6.4 1.6-12.8-1.6c-20.8-16-19.2-61.6-19.2-77.6 0-27.2 4.8-28 8-30.4 3.2-2.4 8-0.8 8-0.8-12.8-64.8-5.6-98.4-5.6-98.4 1.6-9.6 8-55.2 68-93.6s132-38.4 191.2-0.8c57.6 36 63.2 89.6 64.8 110.4 1.6 20.8-8 84-8 84 2.4-0.8 5.6-0.8 7.2 0.8 0.8 1.6 4.8 2.4 7.2 12.8 2.4 10.4 0 40.8-2.4 62.4-3.2 21.6-11.2 31.2-16.8 33.6-5.6 2.4-11.2 0-11.2 0-9.6 76.8-43.2 100-43.2 100l0.8 80c8.8 8 140.8 60 148.8 62.4s28.8 6.4 42.4 9.6c14.4 2.4 40 16 40 16-342.4 252-657.6 0-657.6 0z" fill="#0071c1" p-id="14647"></path></svg>